<?xml version="1.0" encoding="UTF-8"?>
<!DOCTYPE svg PUBLIC "-//W3C//DTD SVG 1.1//EN" "http://www.w3.org/Graphics/SVG/1.1/DTD/svg11.dtd">
<svg xmlns="http://www.w3.org/2000/svg" version="1.1" width="512px" height="512px" style="shape-rendering:geometricPrecision; text-rendering:geometricPrecision; image-rendering:optimizeQuality; fill-rule:evenodd; clip-rule:evenodd" xmlns:xlink="http://www.w3.org/1999/xlink">
<g><path style="opacity:0.935" fill="#000000" d="M 511.5,199.5 C 511.5,205.5 511.5,211.5 511.5,217.5C 508.792,226.562 503.792,234.229 496.5,240.5C 497.652,269.428 483.986,285.595 455.5,289C 447.761,312.712 431.427,323.046 406.5,320C 402.958,318.98 399.458,317.813 396,316.5C 379.826,338.041 359.826,342.374 336,329.5C 321.795,345.065 304.961,348.732 285.5,340.5C 283.833,341.5 282.5,342.833 281.5,344.5C 284.403,355.68 286.403,367.013 287.5,378.5C 294.927,379.274 301.927,381.44 308.5,385C 310.359,386.558 311.859,388.391 313,390.5C 314.517,396.08 314.851,401.747 314,407.5C 312.031,413.742 309.864,419.909 307.5,426C 313.303,430.806 318.469,436.306 323,442.5C 327.356,449.945 329.022,457.945 328,466.5C 322.208,473.408 316.874,473.074 312,465.5C 311.352,453.534 305.685,444.867 295,439.5C 290.865,434.526 289.532,428.86 291,422.5C 293.37,414.933 295.87,407.433 298.5,400C 297.833,399.333 297.167,398.667 296.5,398C 289.079,396.311 281.746,394.311 274.5,392C 269.995,390.251 265.995,387.751 262.5,384.5C 259.788,388.121 260.122,391.621 263.5,395C 267.654,396.861 271.987,398.194 276.5,399C 284.864,403.725 288.03,410.892 286,420.5C 280.531,441.599 271.698,461.099 259.5,479C 250.39,481.216 246.223,477.716 247,468.5C 257.338,451.645 264.838,433.645 269.5,414.5C 251.211,412.875 242.544,402.875 243.5,384.5C 240.136,383.789 237.803,384.956 236.5,388C 248.866,419.378 241.7,445.211 215,465.5C 211.787,472.482 206.62,474.315 199.5,471C 196.627,467.413 196.127,463.58 198,459.5C 203.667,452.5 210,446.167 217,440.5C 223.907,430.537 226.574,419.537 225,407.5C 222.558,401.173 220.725,394.673 219.5,388C 223.562,373.355 226.729,358.522 229,343.5C 227.981,342.313 226.814,341.313 225.5,340.5C 206.051,348.737 189.217,345.07 175,329.5C 151.174,342.374 131.174,338.041 115,316.5C 91.1252,326.042 72.4585,320.042 59,298.5C 57.6783,295.363 56.5116,292.196 55.5,289C 27.0142,285.595 13.3475,269.428 14.5,240.5C 7.20795,234.229 2.20795,226.562 -0.5,217.5C -0.5,211.5 -0.5,205.5 -0.5,199.5C 3.98523,183.516 14.3186,173.349 30.5,169C 35.8846,150.784 47.8846,139.617 66.5,135.5C 77.8229,115.117 94.6562,108.117 117,114.5C 127.211,98.653 141.711,92.4864 160.5,96C 163.835,96.7526 167.002,97.9193 170,99.5C 183.142,87.2627 198.309,84.0961 215.5,90C 218.249,91.1227 220.749,92.6227 223,94.5C 237.113,79.0983 253.946,75.2649 273.5,83C 279.152,85.7499 283.986,89.5832 288,94.5C 297.856,87.9127 308.689,85.746 320.5,88C 328.546,89.7211 335.379,93.5545 341,99.5C 346.744,96.3568 352.91,95.0234 359.5,95.5C 374.71,95.2313 386.21,101.565 394,114.5C 416.344,108.117 433.177,115.117 444.5,135.5C 462.61,139.113 474.11,149.779 479,167.5C 495.682,172.35 506.515,183.016 511.5,199.5 Z M 249.5,96.5 C 260.793,94.6509 269.46,98.4842 275.5,108C 272.071,117.152 270.571,126.652 271,136.5C 264.861,142.064 257.694,143.897 249.5,142C 245.793,141.064 242.626,139.231 240,136.5C 240.429,126.652 238.929,117.152 235.5,108C 238.865,102.458 243.532,98.6245 249.5,96.5 Z M 193.5,104.5 C 210.612,102.958 220.279,110.624 222.5,127.5C 219.802,146.175 209.135,153.508 190.5,149.5C 192.505,138.567 191.671,127.9 188,117.5C 186.623,115.246 185.123,113.08 183.5,111C 186.421,108.05 189.754,105.883 193.5,104.5 Z M 304.5,104.5 C 313.325,102.918 320.992,105.085 327.5,111C 323.537,115.427 321.037,120.594 320,126.5C 319.353,134.189 319.52,141.856 320.5,149.5C 301.865,153.508 291.198,146.175 288.5,127.5C 289.123,116.545 294.456,108.879 304.5,104.5 Z M 145.5,112.5 C 159.594,110.625 169.094,116.292 174,129.5C 176.366,143.606 170.866,153.106 157.5,158C 153.11,158.772 148.777,158.606 144.5,157.5C 145.176,144.018 140.843,132.518 131.5,123C 135.242,118.068 139.909,114.568 145.5,112.5 Z M 352.5,112.5 C 363.651,110.604 372.651,114.104 379.5,123C 370.306,132.926 365.639,144.593 365.5,158C 351.394,160.366 341.894,154.866 337,141.5C 334.831,127.834 339.998,118.167 352.5,112.5 Z M 102.5,128.5 C 123.432,132.362 130.432,144.362 123.5,164.5C 120.431,168.737 116.598,172.071 112,174.5C 110.133,157.263 101.3,145.096 85.5,138C 90.1112,132.7 95.7778,129.533 102.5,128.5 Z M 405.5,128.5 C 413.58,128.707 420.247,131.873 425.5,138C 409.7,145.096 400.867,157.263 399,174.5C 384.474,166.256 380.808,154.589 388,139.5C 392.557,133.647 398.39,129.98 405.5,128.5 Z M 69.5,152.5 C 91.6409,156.114 98.8076,168.447 91,189.5C 87.8831,193.454 84.0497,196.454 79.5,198.5C 74.5,183.5 64.5,173.5 49.5,168.5C 53.5543,159.767 60.221,154.434 69.5,152.5 Z M 231.5,152.5 C 242.949,159.553 255.282,161.386 268.5,158C 272.363,156.819 275.863,154.986 279,152.5C 293.369,168.174 310.369,171.84 330,163.5C 342.302,175.325 356.635,178.658 373,173.5C 379.968,184.245 389.801,190.912 402.5,193.5C 408.205,205.519 417.538,213.019 430.5,216C 423.114,222.28 418.448,230.113 416.5,239.5C 400.364,240.148 387.864,247.148 379,260.5C 359.099,252.07 341.766,255.737 327,271.5C 314.547,263.547 301.38,262.047 287.5,267C 282.446,269.389 277.946,272.555 274,276.5C 261.667,269.833 249.333,269.833 237,276.5C 223.746,264.197 208.579,261.03 191.5,267C 188.751,268.123 186.251,269.623 184,271.5C 175.375,261.355 164.375,256.022 151,255.5C 143.987,256.631 137.153,258.131 130.5,260C 122.284,246.72 110.284,239.887 94.5,239.5C 92.5522,230.113 87.8856,222.28 80.5,216C 93.4619,213.019 102.795,205.519 108.5,193.5C 121.199,190.912 131.032,184.245 138,173.5C 154.365,178.658 168.698,175.325 181,163.5C 200.589,171.864 217.422,168.197 231.5,152.5 Z M 437.5,152.5 C 448.884,152.853 456.884,158.186 461.5,168.5C 446.5,173.5 436.5,183.5 431.5,198.5C 416.558,190.507 412.725,178.841 420,163.5C 424.557,157.647 430.39,153.98 437.5,152.5 Z M 37.5,184.5 C 52.6467,185.549 60.98,193.549 62.5,208.5C 46.157,206.112 32.9904,211.445 23,224.5C 14.5054,213.868 14.3388,203.034 22.5,192C 27.0604,188.386 32.0604,185.886 37.5,184.5 Z M 470.5,184.5 C 491.937,188.707 498.771,201.04 491,221.5C 490,222.5 489,223.5 488,224.5C 478.01,211.445 464.843,206.112 448.5,208.5C 449.461,194.535 456.794,186.535 470.5,184.5 Z M 53.5,224.5 C 65.9747,225.149 74.308,231.316 78.5,243C 66.456,248.947 59.1226,258.447 56.5,271.5C 38.4633,269.619 30.63,259.619 33,241.5C 37.0226,232.3 43.8559,226.633 53.5,224.5 Z M 453.5,224.5 C 475.641,228.114 482.808,240.447 475,261.5C 469.915,268.459 463.082,271.793 454.5,271.5C 453.641,265.116 451.141,259.449 447,254.5C 442.403,250.132 437.57,246.132 432.5,242.5C 436.49,232.833 443.49,226.833 453.5,224.5 Z M 93.5,256.5 C 105.383,256.768 113.383,262.435 117.5,273.5C 113.159,280.86 110.992,288.86 111,297.5C 102.118,304.477 92.6176,305.31 82.5,300C 71.8483,290.88 69.6816,280.047 76,267.5C 80.5566,261.647 86.3899,257.98 93.5,256.5 Z M 413.5,256.5 C 435.641,260.114 442.808,272.447 435,293.5C 428.509,301.998 420.009,305.164 409.5,303C 405.793,302.064 402.626,300.231 400,297.5C 400.008,288.86 397.841,280.86 393.5,273.5C 397.001,264.086 403.668,258.42 413.5,256.5 Z M 149.5,272.5 C 159.127,272.809 166.461,276.976 171.5,285C 168.071,294.152 166.571,303.652 167,313.5C 158.118,320.477 148.618,321.31 138.5,316C 127.848,306.88 125.682,296.047 132,283.5C 136.557,277.647 142.39,273.98 149.5,272.5 Z M 358.5,272.5 C 379.937,276.707 386.771,289.04 379,309.5C 372.509,317.998 364.009,321.164 353.5,319C 349.793,318.064 346.626,316.231 344,313.5C 344.429,303.652 342.929,294.152 339.5,285C 343.898,277.807 350.231,273.64 358.5,272.5 Z M 205.5,280.5 C 212.551,280.527 218.551,283.027 223.5,288C 219.537,292.427 217.037,297.594 216,303.5C 215.353,311.189 215.52,318.856 216.5,326.5C 201.261,330.298 190.761,324.964 185,310.5C 183.006,294.346 189.84,284.346 205.5,280.5 Z M 301.5,280.5 C 323.641,284.114 330.808,296.447 323,317.5C 315.543,326.819 306.043,329.819 294.5,326.5C 296.252,316.366 295.752,306.366 293,296.5C 291.561,293.397 289.727,290.564 287.5,288C 291.555,284.142 296.222,281.642 301.5,280.5 Z M 253.5,288.5 C 275.641,292.114 282.808,304.447 275,325.5C 265.909,336.164 255.076,338.331 242.5,332C 231.848,322.88 229.682,312.047 236,299.5C 240.557,293.647 246.39,289.98 253.5,288.5 Z M 245.5,351.5 C 252,352.815 258.5,352.815 265,351.5C 266.987,356.597 268.154,361.93 268.5,367.5C 259.833,367.5 251.167,367.5 242.5,367.5C 242.992,362.041 243.992,356.708 245.5,351.5 Z"/></g>
</svg>
